<?xml version="1.0" encoding="UTF-8" standalone="no"?>
<svg width="61px" height="80px" viewBox="0 0 61 80" version="1.1" xmlns="http://www.w3.org/2000/svg" xmlns:xlink="http://www.w3.org/1999/xlink">
    <!-- Generator: Sketch 3.8.3 (29802) - http://www.bohemiancoding.com/sketch -->
    <title>church</title>
    <desc>Created with Sketch.</desc>
    <defs></defs>
    <g id="Page-1" stroke="none" stroke-width="1" fill="none" fill-rule="evenodd">
        <g id="01Home_01" transform="translate(-844.000000, -1989.000000)">
            <g id="03-where" transform="translate(-12.000000, 1501.000000)">
                <g id="church" transform="translate(856.000000, 488.000000)">
                    <path d="M56,48.45952 L56,56.92032 L56,68.41952 L56,71.75232 C56,74.00672 53.8128,75.03232 51.7792,75.03232 L49.3872,75.03232 L39.7328,75.03232 L39.7328,71.58592 L39.7328,64.79712 L39.7328,57.96672 C39.7328,55.54112 37.76,55.16672 35.3328,55.16672 L25.4672,55.16672 C23.04,55.16672 21.0672,55.54112 21.0672,57.96672 L21.0672,64.79712 L21.0672,71.58592 L21.0672,75.03232 L11.4128,75.03232 L9.0224,75.03232 C6.9888,75.03232 4.8,74.00672 4.8,71.75232 L4.8,68.41952 L4.7984,56.91872 L4.7984,48.43552 L4.7984,48.29632 C4.8224,47.60672 5.0768,46.93472 5.6592,46.35232 L17.0464,34.96512 L30.4,21.61152 L43.7344,34.94592 L55.1408,46.35232 C55.7184,46.92992 55.9712,47.59712 56,48.28032 L56,48.45952 Z" id="Fill-1" fill="#FFFFFF"></path>
                    <path d="M30.4,43.6 C28.4144,43.6 26.8,41.9856 26.8,40 C26.8,38.0144 28.4144,36.4 30.4,36.4 C32.3856,36.4 34,38.0144 34,40 C34,41.9856 32.3856,43.6 30.4,43.6 M30.4,34 C27.0912,34 24.4,36.6912 24.4,40 C24.4,43.3088 27.0912,46 30.4,46 C33.7088,46 36.4,43.3088 36.4,40 C36.4,36.6912 33.7088,34 30.4,34" id="Fill-3" fill="#000000"></path>
                    <path d="M56,48.45952 L56,56.92032 L56,68.41952 L56,71.75232 C56,74.00672 53.8128,75.03232 51.7792,75.03232 L49.3872,75.03232 L41.3328,75.03232 L41.3328,71.58592 L41.3328,64.79712 L41.3328,57.96672 C41.3328,55.54112 39.36,53.56672 36.9328,53.56672 L23.8672,53.56672 C21.44,53.56672 19.4672,55.54112 19.4672,57.96672 L19.4672,64.79712 L19.4672,71.58592 L19.4672,75.03232 L11.4128,75.03232 L9.0224,75.03232 C6.9888,75.03232 4.8,74.00672 4.8,71.75232 L4.8,68.41952 L4.7984,56.91872 L4.7984,48.43552 L4.7984,48.29632 C4.8224,47.60672 5.0768,46.93472 5.6592,46.35232 L17.0464,34.96512 L30.4,21.61152 L43.7344,34.94592 L55.1408,46.35232 C55.7184,46.92992 55.9712,47.59712 56,48.28032 L56,48.45952 Z M37.8864,75.03232 L31.0992,75.03232 L29.7008,75.03232 L22.9136,75.03232 L21.8672,75.03232 L21.8672,73.98592 L21.8672,67.19712 L21.8672,57.96672 C21.8672,56.86272 22.7632,55.96672 23.8672,55.96672 L36.9328,55.96672 C38.0368,55.96672 38.9328,56.86272 38.9328,57.96672 L38.9328,67.19712 L38.9328,73.98592 L38.9328,75.03232 L37.8864,75.03232 Z M60.7792,48.91232 C60.784,48.83552 60.7776,48.76032 60.7792,48.68512 L60.7792,47.83072 C60.7712,47.89632 60.7584,47.97632 60.7504,48.04512 C60.6624,46.17632 59.9568,44.37952 58.536,42.95872 L46.6112,31.03392 L33.7936,18.21632 L32.8,17.22272 L32.8,11.60032 L36.6672,11.60032 C37.992,11.60032 39.0672,10.52512 39.0672,9.20032 C39.0672,7.87392 37.992,6.80032 36.6672,6.80032 L32.8,6.80032 L32.8,2.40032 C32.8,1.07392 31.7264,0.00032 30.4,0.00032 C29.0736,0.00032 28,1.07392 28,2.40032 L28,6.80032 L24.1328,6.80032 C22.808,6.80032 21.7328,7.87392 21.7328,9.20032 C21.7328,10.52512 22.808,11.60032 24.1328,11.60032 L28,11.60032 L28,17.22272 L27.0064,18.21632 L14.1888,31.03392 L2.264,42.95872 C0.808,44.41472 0.0992,46.26432 0.0432,48.18432 L0.0016,48.28352 L0,63.61952 L0,70.40672 L0,71.75232 C0,76.35872 3.8784,79.83232 9.0224,79.83232 L9.4256,79.83232 L16.2144,79.83232 L26.2992,79.83232 L27.7136,79.83232 L33.0864,79.83232 L34.5008,79.83232 L44.5856,79.83232 L51.3744,79.83232 L51.7792,79.83232 C56.9216,79.83232 60.8,76.35872 60.8,71.75232 L60.8,70.40672 L60.8,63.61952 L60.7792,48.91232 Z" id="Fill-5" fill="#000000"></path>
                    <path d="M37.88688,75.0328 L31.09808,75.0328 L29.70128,75.0328 L22.91248,75.0328 L21.86608,75.0328 L21.86608,73.9864 L21.86608,67.1976 L21.86608,57.9656 C21.86608,56.8632 22.76368,55.9656 23.86608,55.9656 L36.93328,55.9656 C38.03728,55.9656 38.93328,56.8632 38.93328,57.9656 L38.93328,67.1976 L38.93328,73.9864 L38.93328,75.0328 L37.88688,75.0328 Z" id="Fill-7" fill="#E13443"></path>
                    <path d="M30.4,43.6 C28.4144,43.6 26.8,41.9856 26.8,40 C26.8,38.0144 28.4144,36.4 30.4,36.4 C32.3856,36.4 34,38.0144 34,40 C34,41.9856 32.3856,43.6 30.4,43.6" id="Fill-9" fill="#DBE2DF"></path>
                </g>
            </g>
        </g>
    </g>
</svg>