<?xml version="1.0" encoding="UTF-8" standalone="no"?>
<svg width="67px" height="56px" viewBox="0 0 67 56" version="1.1" xmlns="http://www.w3.org/2000/svg" xmlns:xlink="http://www.w3.org/1999/xlink">
    <!-- Generator: Sketch 3.8.3 (29802) - http://www.bohemiancoding.com/sketch -->
    <title>heart</title>
    <desc>Created with Sketch.</desc>
    <defs></defs>
    <g id="Page-1" stroke="none" stroke-width="1" fill="none" fill-rule="evenodd">
        <g id="01Home_01" transform="translate(-607.000000, -437.000000)" stroke="#000000" fill="#000000">
            <g id="01-landing" transform="translate(25.000000, 25.000000)">
                <path d="M599.309302,450.997698 L598.9092,451.3742 C596.5272,448.8462 595.2162,445.5392 595.2162,442.0642 C595.2162,434.5772 601.3072,428.4852 608.7952,428.4852 C611.164352,428.4852 613.393821,429.0952 615.334782,430.166376 C617.275763,429.095387 619.505253,428.4855 621.8745,428.4855 C629.3615,428.4855 635.4535,434.5775 635.4535,442.0645 C635.4535,445.5325 634.1455,448.8345 631.7715,451.3615 L631.415477,451.026477 L631.754,451.365 L617.161,465.958 C616.674,466.446 616.024,466.716 615.334,466.716 C614.645,466.716 613.995,466.446 613.508,465.958 L598.928,451.379 L599.309302,450.997698 Z M599.628789,450.678211 C597.426751,448.338488 596.2162,445.278624 596.2162,442.0642 C596.2162,435.1282 601.8582,429.4852 608.7952,429.4852 C610.783207,429.4852 612.664991,429.948783 614.338125,430.773522 C610.69662,433.211802 608.2945,437.363122 608.2945,442.0645 L609.2945,442.0645 C609.2945,437.521675 611.715216,433.533517 615.334736,431.32222 C618.953703,433.533578 621.3742,437.521581 621.3742,442.0642 L622.3742,442.0642 C622.3742,437.363065 619.972329,433.211931 616.331387,430.7736 C618.004555,429.949 619.886385,429.4855 621.8745,429.4855 C628.8105,429.4855 634.4535,435.1285 634.4535,442.0645 C634.4535,445.27231 633.246409,448.32562 631.053154,450.664154 L631.047,450.658 L616.454,465.251 C615.857,465.851 614.813,465.853 614.215,465.251 L599.635,450.672 L599.628789,450.678211 Z M615.334,449.1037 C611.452,449.1037 608.295,445.9467 608.295,442.0647 L609.295,442.0647 C609.295,445.3947 612.004,448.1037 615.334,448.1037 C618.664,448.1037 621.374,445.3947 621.374,442.0647 L622.374,442.0647 C622.374,445.9467 619.216,449.1037 615.334,449.1037 Z M614.834,420.779 L615.834,420.779 L615.834,413 L614.834,413 L614.834,420.779 Z M597.6182,428.3244 L592.1172,422.8244 L592.8242,422.1174 L598.3252,427.6174 L597.6182,428.3244 Z M633.0508,428.3244 L632.3438,427.6174 L637.8448,422.1174 L638.5518,422.8244 L633.0508,428.3244 Z M639.889,445.834 L647.668,445.834 L647.668,444.834 L639.889,444.834 L639.889,445.834 Z M583,445.834 L590.779,445.834 L590.779,444.834 L583,444.834 L583,445.834 Z" id="heart"></path>
            </g>
        </g>
    </g>
</svg>