<?xml version="1.0" encoding="UTF-8" standalone="no"?>
<svg width="35px" height="36px" viewBox="0 0 35 36" version="1.1" xmlns="http://www.w3.org/2000/svg" xmlns:xlink="http://www.w3.org/1999/xlink">
    <!-- Generator: Sketch 3.8.3 (29802) - http://www.bohemiancoding.com/sketch -->
    <title>hotel 06</title>
    <desc>Created with Sketch.</desc>
    <defs></defs>
    <g id="Page-1" stroke="none" stroke-width="1" fill="none" fill-rule="evenodd">
        <g id="01Home_01" transform="translate(-965.000000, -1925.000000)">
            <g id="03-where" transform="translate(-12.000000, 1501.000000)">
                <g id="hotel-06" transform="translate(977.000000, 424.000000)">
                    <path d="M32.8426778,31.2812111 C32.8426778,32.2721 32.0361222,33.0786556 31.0452333,33.0786556 L27.4495667,33.0786556 C26.4579,33.0786556 25.6513444,32.2721 25.6513444,31.2812111 L25.6513444,23.3712111 L25.6513444,21.2136556 L23.4945667,21.2136556 L11.5059,21.2136556 L9.34834444,21.2136556 L9.34834444,23.3712111 L9.34834444,31.2812111 C9.34834444,32.2721 8.54178889,33.0786556 7.5509,33.0786556 L3.95523333,33.0786556 C2.96356667,33.0786556 2.15701111,32.2721 2.15701111,31.2812111 L2.15701111,3.95476667 C2.15701111,2.96387778 2.96356667,2.15732222 3.95523333,2.15732222 L7.5509,2.15732222 C8.54178889,2.15732222 9.34834444,2.96387778 9.34834444,3.95476667 L9.34834444,11.8655444 L9.34834444,14.0223222 L11.5059,14.0223222 L23.4945667,14.0223222 L25.6513444,14.0223222 L25.6513444,11.8655444 L25.6513444,3.95476667 C25.6513444,2.96387778 26.4579,2.15732222 27.4495667,2.15732222 L31.0452333,2.15732222 C32.0361222,2.15732222 32.8426778,2.96387778 32.8426778,3.95476667 L32.8426778,31.2812111 Z M31.0452333,-0.000233333333 L27.4495667,-0.000233333333 C25.2686778,-0.000233333333 23.4945667,1.77387778 23.4945667,3.95476667 L23.4945667,11.8655444 L11.5059,11.8655444 L11.5059,3.95476667 C11.5059,1.77387778 9.73178889,-0.000233333333 7.5509,-0.000233333333 L3.95523333,-0.000233333333 C1.77434444,-0.000233333333 0.000233333333,1.77387778 0.000233333333,3.95476667 L0.000233333333,31.2812111 C0.000233333333,33.4621 1.77434444,35.2362111 3.95523333,35.2362111 L7.5509,35.2362111 C9.73178889,35.2362111 11.5059,33.4621 11.5059,31.2812111 L11.5059,23.3712111 L23.4945667,23.3712111 L23.4945667,31.2812111 C23.4945667,33.4621 25.2686778,35.2362111 27.4495667,35.2362111 L31.0452333,35.2362111 C33.2261222,35.2362111 35.0002333,33.4621 35.0002333,31.2812111 L35.0002333,3.95476667 C35.0002333,1.77387778 33.2261222,-0.000233333333 31.0452333,-0.000233333333 L31.0452333,-0.000233333333 Z" id="Fill-1" fill="#000000"></path>
                    <path d="M32.8426778,31.2812111 C32.8426778,32.2721 32.0361222,33.0786556 31.0452333,33.0786556 L27.4495667,33.0786556 C26.4579,33.0786556 25.6513444,32.2721 25.6513444,31.2812111 L25.6513444,23.3712111 L25.6513444,21.2136556 L23.4945667,21.2136556 L11.5059,21.2136556 L9.34834444,21.2136556 L9.34834444,23.3712111 L9.34834444,31.2812111 C9.34834444,32.2721 8.54178889,33.0786556 7.5509,33.0786556 L3.95523333,33.0786556 C2.96356667,33.0786556 2.15701111,32.2721 2.15701111,31.2812111 L2.15701111,3.95476667 C2.15701111,2.96387778 2.96356667,2.15732222 3.95523333,2.15732222 L7.5509,2.15732222 C8.54178889,2.15732222 9.34834444,2.96387778 9.34834444,3.95476667 L9.34834444,11.8655444 L9.34834444,14.0223222 L11.5059,14.0223222 L23.4945667,14.0223222 L25.6513444,14.0223222 L25.6513444,11.8655444 L25.6513444,3.95476667 C25.6513444,2.96387778 26.4579,2.15732222 27.4495667,2.15732222 L31.0452333,2.15732222 C32.0361222,2.15732222 32.8426778,2.96387778 32.8426778,3.95476667 L32.8426778,31.2812111 Z" id="Fill-4" fill="#3494E1"></path>
                </g>
            </g>
        </g>
    </g>
</svg>