<?xml version="1.0" encoding="UTF-8" standalone="no"?>
<svg width="80px" height="55px" viewBox="0 0 80 55" version="1.1" xmlns="http://www.w3.org/2000/svg" xmlns:xlink="http://www.w3.org/1999/xlink">
    <!-- Generator: Sketch 3.8.3 (29802) - http://www.bohemiancoding.com/sketch -->
    <title>banquete</title>
    <desc>Created with Sketch.</desc>
    <defs></defs>
    <g id="Page-1" stroke="none" stroke-width="1" fill="none" fill-rule="evenodd">
        <g id="01Home_01" transform="translate(-298.000000, -1671.000000)">
            <g id="03-where" transform="translate(-12.000000, 1501.000000)">
                <g id="banquete" transform="translate(310.000000, 170.000000)">
                    <path d="M39.61952,48.72432 C28.59072,48.72432 19.61952,39.75312 19.61952,28.72432 C19.61952,17.69552 28.59072,8.72432 39.61952,8.72432 C50.64832,8.72432 59.61952,17.69552 59.61952,28.72432 C59.61952,39.75312 50.64832,48.72432 39.61952,48.72432" id="Fill-1" fill="#DBE2DF"></path>
                    <path d="M39.61952,48.72432 C28.59072,48.72432 19.61952,39.75312 19.61952,28.72432 C19.61952,17.69552 28.59072,8.72432 39.61952,8.72432 C50.64832,8.72432 59.61952,17.69552 59.61952,28.72432 C59.61952,39.75312 50.64832,48.72432 39.61952,48.72432 M39.61952,3.92432 C25.94432,3.92432 14.81952,15.04912 14.81952,28.72432 C14.81952,42.39952 25.94432,53.52432 39.61952,53.52432 C53.29472,53.52432 64.41952,42.39952 64.41952,28.72432 C64.41952,15.04912 53.29472,3.92432 39.61952,3.92432" id="Fill-3" fill="#000000"></path>
                    <path d="M39.61952,43.6368 C31.39712,43.6368 24.70752,36.9472 24.70752,28.7248 C24.70752,20.5024 31.39712,13.8112 39.61952,13.8112 C47.84192,13.8112 54.53152,20.5024 54.53152,28.7248 C54.53152,36.9472 47.84192,43.6368 39.61952,43.6368 M39.61952,11.4112 C30.07392,11.4112 22.30752,19.1776 22.30752,28.7248 C22.30752,38.2704 30.07392,46.0368 39.61952,46.0368 C49.16512,46.0368 56.93152,38.2704 56.93152,28.7248 C56.93152,19.1776 49.16512,11.4112 39.61952,11.4112" id="Fill-5" fill="#000000"></path>
                    <path d="M8,23.92512 L8,49.84832 C8,50.95232 7.1024,51.84832 6,51.84832 C4.8976,51.84832 4,50.95232 4,49.84832 L4,23.92512 C4,22.82272 4.8976,21.92512 6,21.92512 C7.1024,21.92512 8,22.82272 8,23.92512 M2.4,11.93472 L2.4,7.44352 L5.0208,10.02752 L6,7.68672 L6.976,10.02752 L9.6,7.44192 L9.6,11.93472 C9.6,13.92032 7.9856,15.53472 6,15.53472 C4.0144,15.53472 2.4,13.92032 2.4,11.93472 M12,11.93472 L12,1.70752 L7.8224,5.82432 L6,1.46112 L4.176,5.82432 L0,1.70592 L0,11.93472 C0,14.83232 2.064,17.25632 4.8,17.81312 L4.8,19.71232 C2.9584,20.23872 1.6,21.91872 1.6,23.92512 L1.6,49.84832 C1.6,52.27392 3.5728,54.24832 6,54.24832 C8.4272,54.24832 10.4,52.27392 10.4,49.84832 L10.4,23.92512 C10.4,21.91872 9.0416,20.23872 7.2,19.71232 L7.2,17.81312 C9.936,17.25632 12,14.83232 12,11.93472" id="Fill-7" fill="#000000"></path>
                    <path d="M75.23824,23.92512 L75.23824,49.84832 C75.23824,50.95232 74.34064,51.84832 73.23824,51.84832 C72.13584,51.84832 71.23824,50.95232 71.23824,49.84832 L71.23824,23.92512 C71.23824,22.82272 72.13584,21.92512 73.23824,21.92512 C74.34064,21.92512 75.23824,22.82272 75.23824,23.92512 M69.63824,11.93472 L69.63824,6.00032 C69.63824,4.01472 71.25264,2.40032 73.23824,2.40032 C75.22384,2.40032 76.83824,4.01472 76.83824,6.00032 L76.83824,11.93472 C76.83824,13.92032 75.22384,15.53472 73.23824,15.53472 C71.25264,15.53472 69.63824,13.92032 69.63824,11.93472 M79.23824,11.93472 L79.23824,6.00032 C79.23824,2.69152 76.54704,0.00032 73.23824,0.00032 C69.92944,0.00032 67.23824,2.69152 67.23824,6.00032 L67.23824,11.93472 C67.23824,14.83232 69.30224,17.25632 72.03824,17.81312 L72.03824,19.71232 C70.19664,20.23872 68.83824,21.91872 68.83824,23.92512 L68.83824,49.84832 C68.83824,52.27392 70.81104,54.24832 73.23824,54.24832 C75.66544,54.24832 77.63824,52.27392 77.63824,49.84832 L77.63824,23.92512 C77.63824,21.91872 76.27984,20.23872 74.43824,19.71232 L74.43824,17.81312 C77.17424,17.25632 79.23824,14.83232 79.23824,11.93472" id="Fill-9" fill="#000000"></path>
                    <path d="M39.61952,43.6368 C31.39712,43.6368 24.70752,36.9472 24.70752,28.7248 C24.70752,20.5024 31.39712,13.8112 39.61952,13.8112 C47.84192,13.8112 54.53152,20.5024 54.53152,28.7248 C54.53152,36.9472 47.84192,43.6368 39.61952,43.6368" id="Fill-12" fill="#FFFFFF"></path>
                    <path d="M8,23.92512 L8,49.84832 C8,50.95232 7.1024,51.84832 6,51.84832 C4.8976,51.84832 4,50.95232 4,49.84832 L4,23.92512 C4,22.82272 4.8976,21.92512 6,21.92512 C7.1024,21.92512 8,22.82272 8,23.92512" id="Fill-14" fill="#E13443"></path>
                    <path d="M75.23824,23.92512 L75.23824,49.84832 C75.23824,50.95232 74.34064,51.84832 73.23824,51.84832 C72.13584,51.84832 71.23824,50.95232 71.23824,49.84832 L71.23824,23.92512 C71.23824,22.82272 72.13584,21.92512 73.23824,21.92512 C74.34064,21.92512 75.23824,22.82272 75.23824,23.92512" id="Fill-16" fill="#E13443"></path>
                    <path d="M2.4,11.9344 L2.4,7.4432 L5.0208,10.0272 L6,7.6864 L6.976,10.0272 L9.6,7.4416 L9.6,11.9344 C9.6,13.92 7.9856,15.5344 6,15.5344 C4.0144,15.5344 2.4,13.92 2.4,11.9344" id="Fill-18" fill="#DBE2DF"></path>
                    <path d="M69.63824,11.9344 L69.63824,6 C69.63824,4.0144 71.25264,2.4 73.23824,2.4 C75.22384,2.4 76.83824,4.0144 76.83824,6 L76.83824,11.9344 C76.83824,13.92 75.22384,15.5344 73.23824,15.5344 C71.25264,15.5344 69.63824,13.92 69.63824,11.9344" id="Fill-20" fill="#DBE2DF"></path>
                </g>
            </g>
        </g>
    </g>
</svg>