<?xml version="1.0" encoding="UTF-8" standalone="no"?>
<svg width="380px" height="66px" viewBox="0 0 380 66" version="1.1" xmlns="http://www.w3.org/2000/svg" xmlns:xlink="http://www.w3.org/1999/xlink">
    <!-- Generator: Sketch 3.8.3 (29802) - http://www.bohemiancoding.com/sketch -->
    <title>logo</title>
    <desc>Created with Sketch.</desc>
    <defs></defs>
    <g id="Symbols" stroke="none" stroke-width="1" fill="none" fill-rule="evenodd">
        <g id="logo">
            <g>
                <path d="M368.297012,6.89349161 L11.0115262,6.89349161 C8.73733215,6.89349161 6.89407925,8.73674451 6.89407925,11.0109386 L6.89407925,54.8670376 C6.89407925,57.1412316 8.73733215,58.9844845 11.0115262,58.9844845 L368.297012,58.9844845 C370.571206,58.9844845 372.414459,57.1412316 372.414459,54.8670376 L372.414459,11.0109386 C372.414459,8.73674451 370.571206,6.89349161 368.297012,6.89349161 L368.297012,6.89349161 Z" id="Fill-1" fill="#E13443"></path>
                <path d="M5.38108399,2.52492347 C3.80618991,2.52492347 2.52511935,3.80599403 2.52511935,5.38088811 L2.52511935,60.4963045 C2.52511935,62.0711986 3.80618991,63.354228 5.38108399,63.354228 L373.927846,63.354228 C375.50274,63.354228 376.783811,62.0711986 376.783811,60.4963045 L376.783811,5.38088811 C376.783811,3.80599403 375.50274,2.52492347 373.927846,2.52492347 L5.38108399,2.52492347 Z M373.927846,65.8791514 L5.38108399,65.8791514 C2.41346642,65.8791514 0.000195882348,63.4639221 0.000195882348,60.4963045 L0.000195882348,5.38088811 C0.000195882348,2.41327053 2.41346642,0 5.38108399,0 L373.927846,0 C376.895464,0 379.310693,2.41327053 379.310693,5.38088811 L379.310693,60.4963045 C379.310693,63.4639221 376.895464,65.8791514 373.927846,65.8791514 L373.927846,65.8791514 Z" id="Fill-3" fill="#E13443"></path>
                <polygon id="Fill-6" fill="#FFFFFF" points="42.8283043 46.1585001 41.8293043 31.455571 34.3916516 42.8872649 34.0488575 42.8872649 26.6445047 31.5241299 25.6474635 46.1585001 21.6514636 46.1585001 23.167593 20.5410066 23.5123459 20.5410066 34.2192751 36.6209886 44.9634219 20.5410066 45.3081748 20.5410066 46.8223454 46.1585001"></polygon>
                <path d="M63.3843938,28.3913835 L59.7351057,37.274648 L67.000382,37.274648 L63.3843938,28.3913835 Z M68.4812525,40.8553773 L58.2875351,40.8553773 L56.0838587,46.1579125 L52.0898176,46.1579125 L63.1081997,20.3347425 L63.660588,20.3347425 L74.6789701,46.1579125 L70.684929,46.1579125 L68.4812525,40.8553773 Z" id="Fill-8" fill="#FFFFFF"></path>
                <path d="M88.2101309,34.1759851 C91.5146661,34.1759851 93.3755484,32.4208793 93.3755484,29.3905793 C93.3755484,26.3602794 91.4461073,24.6032147 88.0730133,24.6032147 L84.5255839,24.6032147 L84.5255839,34.1759851 L88.2101309,34.1759851 Z M94.7859014,46.1581084 L89.6910015,37.7567144 L89.1738721,37.7567144 L84.5255839,37.7567144 L84.5255839,46.1581084 L80.5315429,46.1581084 L80.5315429,21.0224854 L89.0367544,21.0224854 C93.9945367,21.0224854 97.4028895,24.3289794 97.4028895,29.3553205 C97.4028895,32.7636734 95.8534602,35.4492204 93.3069896,36.7929733 L99.3656307,46.1581084 L94.7859014,46.1581084 Z" id="Fill-10" fill="#FFFFFF"></path>
                <polygon id="Fill-12" fill="#FFFFFF" points="105.325939 46.1592836 109.31998 46.1592836 109.31998 21.0236607 105.325939 21.0236607"></polygon>
                <path d="M126.432066,28.3913835 L122.782778,37.274648 L130.048054,37.274648 L126.432066,28.3913835 Z M131.528925,40.8553773 L121.335207,40.8553773 L119.131531,46.1579125 L115.13749,46.1579125 L126.155872,20.3347425 L126.70826,20.3347425 L137.726642,46.1579125 L133.732601,46.1579125 L131.528925,40.8553773 Z" id="Fill-14" fill="#FFFFFF"></path>
                <polygon id="Fill-15" fill="#FFFFFF" points="163.963516 21.0228772 163.963516 46.6756295 163.618763 46.6756295 147.57404 29.9414005 147.57404 46.1585001 143.579998 46.1585001 143.579998 20.5057478 143.924751 20.5057478 159.969475 37.4809121 159.969475 21.0228772"></polygon>
                <path d="M181.110861,28.3913835 L177.461572,37.274648 L184.726849,37.274648 L181.110861,28.3913835 Z M186.207719,40.8553773 L176.014002,40.8553773 L173.810325,46.1579125 L169.816284,46.1579125 L180.834666,20.3347425 L181.387055,20.3347425 L192.405437,46.1579125 L188.411396,46.1579125 L186.207719,40.8553773 Z" id="Fill-16" fill="#FFFFFF"></path>
                <path d="M219.193131,41.7511473 L215.163832,34.4506122 C212.513543,34.6582474 210.68792,36.3114945 210.68792,38.7561062 C210.68792,40.9597826 212.100232,42.9910825 214.991455,42.9910825 C216.335208,42.9910825 217.74752,42.542512 219.193131,41.7511473 M223.772861,42.4406531 L225.804161,46.1585001 L221.602484,46.1585001 L220.742561,44.5738119 C218.607443,45.7804472 216.403767,46.5032531 214.303908,46.5032531 C210.13749,46.5032531 206.488202,43.6453296 206.488202,38.9617826 C206.488202,34.9344416 209.207049,32.0412593 213.442026,31.2831946 L207.829996,21.0228772 L222.946237,21.0228772 L222.946237,24.5350477 L214.096273,24.5350477 L222.223431,39.5474709 C222.910978,38.9284826 223.600484,38.2037179 224.254731,37.4476121 L226.699343,39.6512885 C225.768902,40.6502885 224.805161,41.6140296 223.772861,42.4406531" id="Fill-17" fill="#FFFFFF"></path>
                <path d="M241.264371,44.1614796 L242.504306,40.6845679 C244.36323,41.8539855 247.152594,42.7844267 249.528647,42.7844267 C251.800882,42.7844267 253.867441,41.9225443 253.867441,39.4779326 C253.867441,37.0333209 251.663765,36.1381386 248.978218,34.7963445 C245.39553,33.0392798 242.504306,31.4212916 242.504306,27.4958094 C242.504306,23.260833 245.912659,20.6791036 250.629506,20.6791036 C252.764624,20.6791036 255.140677,21.1942742 257.379612,22.261833 L256.413912,26.0501976 C254.176935,24.8102624 252.247494,24.293133 250.733324,24.293133 C248.288712,24.293133 246.739283,25.3606918 246.739283,27.4958094 C246.739283,29.9756799 248.805841,30.7337446 251.491388,32.0422387 C255.553988,33.969721 258.067159,35.5877092 258.067159,39.4779326 C258.067159,44.4024149 254.004559,46.5022736 249.460088,46.5022736 C246.566906,46.5022736 243.503306,45.6423501 241.264371,44.1614796" id="Fill-18" fill="#FFFFFF"></path>
                <polygon id="Fill-19" fill="#FFFFFF" points="265.542029 46.1592836 269.53607 46.1592836 269.53607 21.0236607 265.542029 21.0236607"></polygon>
                <polygon id="Fill-20" fill="#FFFFFF" points="298.492966 46.1585001 297.493966 31.455571 290.056313 42.8872649 289.713519 42.8872649 282.309166 31.5241299 281.312125 46.1585001 277.316125 46.1585001 278.832255 20.5410066 279.177008 20.5410066 289.883937 36.6209886 300.628084 20.5410066 300.972837 20.5410066 302.487007 46.1585001"></polygon>
                <path d="M319.049056,28.3913835 L315.399767,37.274648 L322.665044,37.274648 L319.049056,28.3913835 Z M314.124573,18.1643661 L312.988456,16.7873131 C313.952197,15.3417014 315.433067,14.3779603 316.741562,14.3779603 C318.876679,14.3779603 320.185173,15.823572 321.769861,15.823572 C322.424108,15.823572 323.111656,15.5826367 323.938279,14.824572 L325.074397,16.2016249 C323.834461,17.9586896 322.492667,18.509119 321.35655,18.509119 C319.393809,18.509119 318.016756,17.0635073 316.535885,17.0635073 C315.813079,17.0635073 315.019756,17.3377425 314.124573,18.1643661 L314.124573,18.1643661 Z M324.145914,40.8553773 L313.952197,40.8553773 L311.748521,46.1579125 L307.754479,46.1579125 L318.772862,20.3347425 L319.32525,20.3347425 L330.343632,46.1579125 L326.349591,46.1579125 L324.145914,40.8553773 Z" id="Fill-21" fill="#FFFFFF"></path>
                <path d="M354.75547,33.5906886 C354.75547,27.9786594 351.415675,24.2255536 346.389334,24.2255536 C341.361035,24.2255536 338.02124,27.9786594 338.02124,33.5906886 C338.02124,39.2027179 341.361035,42.9558237 346.389334,42.9558237 C351.415675,42.9558237 354.75547,39.2027179 354.75547,33.5906886 M333.786264,33.5906886 C333.786264,25.8435418 338.812605,20.6781242 346.389334,20.6781242 C353.964105,20.6781242 358.990446,25.8435418 358.990446,33.5906886 C358.990446,41.3378355 353.964105,46.5032531 346.389334,46.5032531 C338.812605,46.5032531 333.786264,41.3378355 333.786264,33.5906886" id="Fill-22" fill="#FFFFFF"></path>
            </g>
        </g>
    </g>
</svg>